<svg width="1140" height="60" viewBox="0 0 1140 60" fill="none" xmlns="http://www.w3.org/2000/svg">
<path fill-rule="evenodd" clip-rule="evenodd" d="M37.068 51.6029C36.3023 52.3687 35.0607 52.3687 34.2951 51.6029L11.7647 29.0726L33.9484 6.88887C34.7142 6.12309 35.9556 6.12309 36.7214 6.88887C37.4871 7.65456 37.4871 8.89603 36.7214 9.66182L17.3106 29.0726L37.068 48.83C37.8338 49.5957 37.8338 50.8372 37.068 51.6029Z" fill="#6F2CFF"/>
<path fill-rule="evenodd" clip-rule="evenodd" d="M1102.34 6.88875C1103.1 6.12302 1104.35 6.12302 1105.11 6.88875L1127.64 29.4191L1105.46 51.6028C1104.69 52.3686 1103.45 52.3686 1102.69 51.6028C1101.92 50.8371 1101.92 49.5957 1102.69 48.8299L1122.1 29.4191L1102.34 9.66173C1101.57 8.89599 1101.57 7.65449 1102.34 6.88875Z" fill="#6F2CFF"/>
</svg>
