<svg width="1440" height="33" viewBox="0 0 1440 33" fill="none" xmlns="http://www.w3.org/2000/svg">
<g clip-path="url(#clip0_1_678)">
<path d="M663.85 27.7898C670.87 27.7898 674.71 21.9998 674.71 16.9898L674.7 16.4898C675.446 15.9526 676.092 15.2893 676.61 14.5298C675.91 14.8298 675.17 15.0398 674.41 15.1198C675.21 14.6498 675.81 13.8998 676.09 13.0198C675.35 13.4598 674.52 13.7798 673.67 13.9498C672.975 13.2135 672.017 12.7823 671.005 12.7504C669.993 12.7186 669.01 13.0887 668.27 13.7798C667.784 14.2349 667.426 14.81 667.233 15.4473C667.04 16.0846 667.018 16.7614 667.17 17.4098C665.654 17.3356 664.171 16.9449 662.816 16.2629C661.46 15.5808 660.263 14.6226 659.3 13.4498C658.81 14.2836 658.66 15.2738 658.879 16.2155C659.099 17.1573 659.672 17.9787 660.48 18.5098C659.871 18.4961 659.273 18.3348 658.74 18.0398V18.0798C658.744 18.9601 659.051 19.8121 659.611 20.4917C660.17 21.1714 660.947 21.637 661.81 21.8098C661.25 21.9598 660.66 21.9798 660.08 21.8698C660.33 22.6246 660.807 23.2836 661.446 23.7563C662.085 24.229 662.855 24.4922 663.65 24.5098C662.046 25.7549 660.016 26.3189 658 26.0798C659.745 27.1996 661.776 27.7933 663.85 27.7898Z" fill="#1C1C1C"/>
</g>
<g clip-path="url(#clip1_1_678)">
<path d="M766.74 11.8C767.62 11.84 768.22 11.98 768.75 12.19C769.307 12.3941 769.809 12.7224 770.22 13.15C770.69 13.61 770.97 14.07 771.18 14.62C771.39 15.15 771.53 15.75 771.57 16.64C771.61 17.52 771.62 17.8 771.62 20.06C771.62 22.32 771.61 22.6 771.57 23.49C771.557 24.1807 771.425 24.864 771.18 25.51C770.973 26.0654 770.645 26.5676 770.22 26.98C769.76 27.44 769.3 27.73 768.75 27.94C768.22 28.14 767.62 28.28 766.74 28.32C765.85 28.37 765.57 28.37 763.31 28.37C761.05 28.37 760.77 28.37 759.88 28.32C759.194 28.3048 758.515 28.1764 757.87 27.94C757.315 27.7326 756.81 27.4083 756.391 26.989C755.972 26.5698 755.647 26.0654 755.44 25.51C755.195 24.864 755.063 24.1807 755.05 23.49C755.01 22.6 755 22.32 755 20.06C755 17.8 755.01 17.52 755.05 16.64C755.09 15.75 755.23 15.15 755.44 14.62C755.644 14.0659 755.969 13.5639 756.39 13.15C756.86 12.68 757.32 12.4 757.87 12.19C758.512 11.9448 759.193 11.8129 759.88 11.8C760.77 11.76 761.05 11.75 763.31 11.75C765.57 11.75 765.85 11.76 766.74 11.8ZM763.31 13.25C761.09 13.25 760.83 13.26 759.95 13.3C759.14 13.33 758.7 13.47 758.41 13.58C758.047 13.7124 757.718 13.9224 757.445 14.1953C757.172 14.4682 756.962 14.7975 756.83 15.16C756.72 15.45 756.58 15.89 756.55 16.7C756.5 17.8193 756.484 18.9398 756.5 20.06C756.5 22.28 756.51 22.54 756.55 23.42C756.58 24.23 756.72 24.67 756.83 24.96C756.98 25.35 757.16 25.63 757.45 25.92C757.74 26.21 758.02 26.39 758.41 26.54C758.7 26.66 759.14 26.79 759.95 26.83C760.83 26.87 761.09 26.88 763.31 26.88C765.53 26.88 765.79 26.87 766.67 26.83C767.196 26.8252 767.718 26.727 768.21 26.54C768.6 26.39 768.88 26.21 769.17 25.92C769.46 25.63 769.64 25.35 769.79 24.96C769.9 24.67 770.04 24.23 770.07 23.42C770.11 22.54 770.12 22.28 770.12 20.06C770.12 17.84 770.11 17.58 770.07 16.7C770.067 16.1743 769.972 15.6531 769.79 15.16C769.658 14.7975 769.448 14.4682 769.175 14.1953C768.902 13.9224 768.573 13.7124 768.21 13.58C767.717 13.3978 767.196 13.3031 766.67 13.3C765.551 13.2504 764.43 13.2338 763.31 13.25Z" fill="#1C1C1C"/>
<path d="M763.35 22.93C762.601 22.93 761.882 22.6324 761.352 22.1026C760.823 21.5728 760.525 20.8542 760.525 20.105C760.525 19.3557 760.823 18.6372 761.352 18.1074C761.882 17.5776 762.601 17.28 763.35 17.28C763.735 17.2571 764.121 17.3131 764.484 17.4447C764.846 17.5763 765.178 17.7807 765.459 18.0453C765.74 18.3099 765.963 18.629 766.116 18.9832C766.269 19.3375 766.348 19.7192 766.348 20.105C766.348 20.4908 766.269 20.8725 766.116 21.2267C765.963 21.5809 765.74 21.9001 765.459 22.1647C765.178 22.4293 764.846 22.6336 764.484 22.7652C764.121 22.8968 763.735 22.9529 763.35 22.93ZM759 20.1C758.972 20.6894 759.063 21.2785 759.27 21.8315C759.476 22.3845 759.792 22.8898 760.199 23.317C760.606 23.7442 761.096 24.0842 761.638 24.3166C762.181 24.5489 762.765 24.6687 763.355 24.6687C763.945 24.6687 764.529 24.5489 765.072 24.3166C765.614 24.0842 766.104 23.7442 766.511 23.317C766.918 22.8898 767.234 22.3845 767.44 21.8315C767.647 21.2785 767.738 20.6894 767.71 20.1C767.656 18.9811 767.174 17.9257 766.363 17.1528C765.552 16.3799 764.475 15.9487 763.355 15.9487C762.235 15.9487 761.158 16.3799 760.347 17.1528C759.536 17.9257 759.054 18.9811 759 20.1Z" fill="#1C1C1C"/>
<path d="M769.37 16.94C769.367 17.2531 769.243 17.5528 769.022 17.7751C768.802 17.9974 768.503 18.1248 768.19 18.13C767.901 18.0924 767.635 17.951 767.443 17.732C767.251 17.513 767.145 17.2315 767.145 16.94C767.145 16.6485 767.251 16.367 767.443 16.148C767.635 15.929 767.901 15.7876 768.19 15.75C768.84 15.75 769.37 16.28 769.37 16.94Z" fill="#1C1C1C"/>
</g>
<g clip-path="url(#clip2_1_678)">
<path d="M623.86 16.5802H627.29V19.9902H623.86V27.9602H620.43V19.9902H617V16.5802H620.43V15.1502C620.43 13.8002 620.86 12.0902 621.71 11.1502C622.107 10.7004 622.597 10.3422 623.146 10.1005C623.695 9.85873 624.29 9.73922 624.89 9.75021H627.29V13.1602H624.89C624.32 13.1602 623.86 13.6202 623.86 14.1902V16.5802Z" fill="#1C1C1C"/>
</g>
<g clip-path="url(#clip3_1_678)">
<path d="M824.37 20.46V22.08C824.37 23.81 824.15 25.54 824.15 25.54C824.15 25.54 823.95 27.01 823.31 27.66C822.49 28.51 821.58 28.52 821.16 28.57C818.17 28.79 813.68 28.79 813.68 28.79C813.68 28.79 808.13 28.74 806.42 28.58C805.94 28.49 804.88 28.51 804.06 27.66C803.42 27.01 803.21 25.54 803.21 25.54C803.21 25.54 803 23.81 803 22.08V20.46C803 18.73 803.21 16.99 803.21 16.99C803.21 16.99 803.42 15.52 804.06 14.87C804.88 14.02 805.79 14.02 806.2 13.97C809.19 13.75 813.68 13.75 813.68 13.75H813.69C813.69 13.75 818.17 13.75 821.16 13.97C821.58 14.02 822.49 14.02 823.31 14.87C823.95 15.52 824.15 16.99 824.15 16.99C824.15 16.99 824.37 18.73 824.37 20.46ZM818.04 21.28L811.71 18.5V24.04L818.04 21.28Z" fill="#1C1C1C"/>
</g>
<path d="M707.27 16.53H710.68V28.17H707.27V16.53ZM710.96 12.85C710.96 14 710.07 14.95 708.98 14.95C707.88 14.95 707 14 707 12.85C707 11.69 707.88 10.75 708.98 10.75C710.07 10.75 710.96 11.69 710.96 12.85Z" fill="#1C1C1C"/>
<path d="M713 16.03H716.4V17.62H716.45C716.788 17.031 717.281 16.5456 717.875 16.216C718.469 15.8865 719.141 15.7254 719.82 15.75C723.41 15.75 724.08 18.15 724.08 21.27V27.63H720.53V21.99C720.53 20.64 720.51 18.91 718.69 18.91C716.83 18.91 716.56 20.38 716.56 21.89V27.63H713.01L713 16.03Z" fill="#1C1C1C"/>
<defs>
<clipPath id="clip0_1_678">
<rect width="19" height="16" fill="white" transform="translate(658 12.75)"/>
</clipPath>
<clipPath id="clip1_1_678">
<rect width="17" height="17" fill="white" transform="translate(755 11.75)"/>
</clipPath>
<clipPath id="clip2_1_678">
<rect width="11" height="19" fill="white" transform="translate(617 9.75)"/>
</clipPath>
<clipPath id="clip3_1_678">
<rect width="22" height="16" fill="white" transform="translate(802 12.75)"/>
</clipPath>
</defs>
</svg>
